<svg version="1.2" xmlns="http://www.w3.org/2000/svg" viewBox="0 0 222 322" width="463" height="671">
	<title>Screenshot 2024-08-07 at 9</title>
	<style>
		.s0 { fill: #ffffff } 
	</style>
	<g id="Background">
		<path id="Path 1" class="s0" d="m102.5 1.9c-2.8 0.5-7.6 1.6-10.8 2.5-3.1 0.9-7.4 2.6-9.4 3.8-2.1 1.2-6 3.9-8.8 5.9-2.7 2-7.1 6.3-9.6 9.6-2.5 3.2-5.5 7.6-6.6 9.8-1.1 2.2-2.9 6.7-3.9 10-1.8 5.6-1.9 10.1-1.9 67 0 56.9 0.1 61.4 1.9 67 1 3.3 3 8.3 4.3 11 1.4 2.7 4.4 7.3 6.6 10 2.2 2.7 6.3 6.9 9.1 9.1 2.8 2.3 6.9 5.1 9.1 6.2 2.2 1.1 7.2 3 11 4.3 5.8 1.9 8.9 2.3 18 2.2 9.1-0.1 12.3-0.5 18.5-2.7 4.1-1.5 9.5-3.9 12-5.3 2.5-1.5 7.4-5.6 11-9.2 4-4.1 7.9-9.3 10.1-13.6 2-3.8 4.5-10.2 5.5-14 1.8-6.5 1.9-11.4 1.9-65 0-53.4-0.1-58.6-1.9-65-1-3.8-3.2-9.7-5-13-1.8-3.4-6.1-9-10.1-13-3.9-3.9-9.8-8.6-13-10.5-3.3-1.9-8.7-4.2-12-5.1-3.3-0.9-9.4-1.9-13.5-2.2-4.1-0.3-9.7-0.2-12.5 0.2zm-93 121.1c-2.2 1.1-5 3.5-6.2 5.2-2.2 3.1-2.3 4.3-2.3 23.3 0 14.3 0.4 22.4 1.6 28.5 0.9 4.7 2.5 11.4 3.6 15 1.1 3.6 3.8 10.1 5.9 14.5 2.2 4.4 6.8 11.8 10.3 16.5 3.5 4.7 9.4 11.4 13.2 15 3.8 3.6 10.3 8.7 14.4 11.5 4.1 2.7 11.3 6.6 16 8.6 4.7 2.1 12.2 4.6 16.8 5.8 4.5 1.2 9.1 2.1 10.2 2.1 1.2 0 2.2 0.8 2.5 2.2 0.3 1.3 0.5 6.1 0.3 10.8l-0.3 8.5c-31.6 0.9-34.5 1.3-37.4 3-1.8 1.1-4.2 3.6-5.3 5.5-1.5 2.7-1.8 4.7-1.4 8.2 0.3 2.7 1.2 5.8 2 7 0.8 1.3 2.7 3.2 4.3 4.3 2.7 1.9 4.4 2 53 2 49.6 0 50.2 0 53-2.1 1.5-1.2 3.6-3.2 4.6-4.5 1.1-1.5 1.9-4.3 2-7.5 0.2-4.1-0.3-5.7-2.5-8.7-1.6-2-3.8-4.3-5-5-1.5-0.7-8.5-1.4-19.3-1.7l-17-0.5v-20.9c11.6-2.5 17.5-4.1 20.5-5.1 3-1 9.3-3.7 14-6 4.7-2.4 11.4-6.4 15-9 3.6-2.7 9.6-8 13.3-11.9 3.8-3.9 9.5-10.9 12.7-15.6 3.2-4.7 7-11.2 8.5-14.5 1.5-3.3 3.6-8.7 4.6-12 1.1-3.3 2.7-9.2 3.6-13 1.1-5 1.5-13.3 1.7-29.1l0.1-22c-4.6-6.2-7.1-7.9-10.2-9.1-3.9-1.3-5.5-1.4-8.5-0.5-2.1 0.7-5.2 2.5-6.8 4.2-1.7 1.7-3.2 4.4-3.4 6.2-0.3 1.8-0.7 11.6-1 21.8-0.4 15.7-0.9 19.9-3.1 27.7-1.4 5.1-4.1 12.6-6.1 16.5-2 4-5.7 9.8-8.1 12.8-2.4 3-7.2 7.9-10.6 10.8-3.4 2.9-10 7.2-14.7 9.6-4.7 2.4-12.3 5.4-17 6.7-6.6 1.7-11.2 2.2-20.5 2.2-9.3 0-13.9-0.5-20.5-2.3-4.7-1.2-11.9-4.1-16-6.3-4.1-2.2-10-5.9-13-8.2-3-2.3-8.1-7.3-11.4-11.1-3.2-3.8-7.4-10.1-9.4-13.9-1.9-3.9-4.6-10.8-5.9-15.5-2.2-7.4-2.6-11.4-3.2-30-0.6-20.7-0.8-21.6-3.1-24.9-1.4-1.9-4.3-4.3-6.5-5.3-2.2-1-4.9-1.8-6-1.8-1.1 0-3.8 0.9-6 2z"/>
	</g>
</svg>